<svg width="18" height="19" viewBox="0 0 18 19" fill="none" xmlns="http://www.w3.org/2000/svg">
<path d="M15.093 0.785172L15.2834 4.82228H14.801C14.7079 4.11134 14.581 3.60353 14.4202 3.29884C14.1578 2.80796 13.8066 2.44826 13.3665 2.21974C12.9348 1.98276 12.3635 1.86427 11.6526 1.86427H9.22778V15.0166C9.22778 16.0746 9.34204 16.7347 9.57056 16.9971C9.89217 17.3526 10.3873 17.5303 11.0559 17.5303H11.6526V18H4.35278V17.5303H4.96216C5.69002 17.5303 6.2063 17.3102 6.51099 16.8701C6.69718 16.5993 6.79028 15.9815 6.79028 15.0166V1.86427H4.72095C3.91691 1.86427 3.34562 1.92352 3.00708 2.04201C2.56698 2.20281 2.19035 2.51173 1.8772 2.96877C1.56405 3.4258 1.37785 4.04364 1.3186 4.82228H0.836182L1.03931 0.785172H15.093Z" fill="#C1C1C1"/>
<g clip-path="url(#clip0_237_192)">
<mask id="path-2-inside-1_237_192" fill="white">
<path d="M14.3668 14.4999H12.7305V16.1363H11.9123V14.4999H10.2759V13.6817H11.9123V12.0453H12.7305V13.6817H14.3668M12.3214 9.99989C11.7842 9.99989 11.2522 10.1057 10.7559 10.3113C10.2595 10.5169 9.80855 10.8182 9.42867 11.1981C8.66147 11.9653 8.23047 13.0058 8.23047 14.0908C8.23047 15.1758 8.66147 16.2163 9.42867 16.9835C9.80855 17.3634 10.2595 17.6647 10.7559 17.8703C11.2522 18.0759 11.7842 18.1817 12.3214 18.1817C13.4064 18.1817 14.4469 17.7507 15.2141 16.9835C15.9813 16.2163 16.4123 15.1758 16.4123 14.0908C16.4123 13.5536 16.3065 13.0216 16.1009 12.5253C15.8953 12.0289 15.594 11.578 15.2141 11.1981C14.8342 10.8182 14.3832 10.5169 13.8869 10.3113C13.3906 10.1057 12.8586 9.99989 12.3214 9.99989Z"/>
</mask>
<path d="M14.3668 14.4999H12.7305V16.1363H11.9123V14.4999H10.2759V13.6817H11.9123V12.0453H12.7305V13.6817H14.3668M12.3214 9.99989C11.7842 9.99989 11.2522 10.1057 10.7559 10.3113C10.2595 10.5169 9.80855 10.8182 9.42867 11.1981C8.66147 11.9653 8.23047 13.0058 8.23047 14.0908C8.23047 15.1758 8.66147 16.2163 9.42867 16.9835C9.80855 17.3634 10.2595 17.6647 10.7559 17.8703C11.2522 18.0759 11.7842 18.1817 12.3214 18.1817C13.4064 18.1817 14.4469 17.7507 15.2141 16.9835C15.9813 16.2163 16.4123 15.1758 16.4123 14.0908C16.4123 13.5536 16.3065 13.0216 16.1009 12.5253C15.8953 12.0289 15.594 11.578 15.2141 11.1981C14.8342 10.8182 14.3832 10.5169 13.8869 10.3113C13.3906 10.1057 12.8586 9.99989 12.3214 9.99989Z" fill="#C1C1C1"/>
<path d="M12.7305 14.4999V13.9999H12.2305V14.4999H12.7305ZM12.7305 16.1363V16.6363H13.2305V16.1363H12.7305ZM11.9123 16.1363H11.4123V16.6363H11.9123V16.1363ZM11.9123 14.4999H12.4123V13.9999H11.9123V14.4999ZM10.2759 14.4999H9.77593V14.9999H10.2759V14.4999ZM10.2759 13.6817V13.1817H9.77593V13.6817H10.2759ZM11.9123 13.6817V14.1817H12.4123V13.6817H11.9123ZM11.9123 12.0453V11.5453H11.4123V12.0453H11.9123ZM12.7305 12.0453H13.2305V11.5453H12.7305V12.0453ZM12.7305 13.6817H12.2305V14.1817H12.7305V13.6817ZM8.23047 14.0908H7.73047H8.23047ZM12.3214 18.1817V18.6817V18.1817ZM14.3668 14.4999V13.9999H12.7305V14.4999V14.9999H14.3668V14.4999ZM12.7305 14.4999H12.2305V16.1363H12.7305H13.2305V14.4999H12.7305ZM12.7305 16.1363V15.6363H11.9123V16.1363V16.6363H12.7305V16.1363ZM11.9123 16.1363H12.4123V14.4999H11.9123H11.4123V16.1363H11.9123ZM11.9123 14.4999V13.9999H10.2759V14.4999V14.9999H11.9123V14.4999ZM10.2759 14.4999H10.7759V13.6817H10.2759H9.77593V14.4999H10.2759ZM10.2759 13.6817V14.1817H11.9123V13.6817V13.1817H10.2759V13.6817ZM11.9123 13.6817H12.4123V12.0453H11.9123H11.4123V13.6817H11.9123ZM11.9123 12.0453V12.5453H12.7305V12.0453V11.5453H11.9123V12.0453ZM12.7305 12.0453H12.2305V13.6817H12.7305H13.2305V12.0453H12.7305ZM12.7305 13.6817V14.1817H14.3668V13.6817V13.1817H12.7305V13.6817ZM12.3214 9.99989V9.49989C11.7185 9.49989 11.1215 9.61864 10.5645 9.84936L10.7559 10.3113L10.9472 10.7732C11.3829 10.5928 11.8498 10.4999 12.3214 10.4999V9.99989ZM10.7559 10.3113L10.5645 9.84936C10.0075 10.0801 9.50142 10.4182 9.07512 10.8445L9.42867 11.1981L9.78222 11.5516C10.1157 11.2182 10.5115 10.9537 10.9472 10.7732L10.7559 10.3113ZM9.42867 11.1981L9.07512 10.8445C8.21415 11.7055 7.73047 12.8732 7.73047 14.0908H8.23047H8.73047C8.73047 13.1384 9.1088 12.2251 9.78222 11.5516L9.42867 11.1981ZM8.23047 14.0908H7.73047C7.73047 15.3084 8.21415 16.4761 9.07512 17.3371L9.42867 16.9835L9.78222 16.63C9.1088 15.9565 8.73047 15.0432 8.73047 14.0908H8.23047ZM9.42867 16.9835L9.07512 17.3371C9.50142 17.7634 10.0075 18.1015 10.5645 18.3322L10.7559 17.8703L10.9472 17.4084C10.5115 17.2279 10.1157 16.9634 9.78222 16.63L9.42867 16.9835ZM10.7559 17.8703L10.5645 18.3322C11.1215 18.563 11.7185 18.6817 12.3214 18.6817V18.1817V17.6817C11.8498 17.6817 11.3829 17.5888 10.9472 17.4084L10.7559 17.8703ZM12.3214 18.1817V18.6817C13.539 18.6817 14.7067 18.198 15.5677 17.3371L15.2141 16.9835L14.8605 16.63C14.1871 17.3034 13.2738 17.6817 12.3214 17.6817V18.1817ZM15.2141 16.9835L15.5677 17.3371C16.4286 16.4761 16.9123 15.3084 16.9123 14.0908H16.4123H15.9123C15.9123 15.0432 15.534 15.9565 14.8605 16.63L15.2141 16.9835ZM16.4123 14.0908H16.9123C16.9123 13.4879 16.7936 12.8909 16.5628 12.3339L16.1009 12.5253L15.639 12.7166C15.8194 13.1523 15.9123 13.6192 15.9123 14.0908H16.4123ZM16.1009 12.5253L16.5628 12.3339C16.3321 11.7769 15.994 11.2708 15.5677 10.8445L15.2141 11.1981L14.8605 11.5516C15.194 11.8851 15.4585 12.281 15.639 12.7166L16.1009 12.5253ZM15.2141 11.1981L15.5677 10.8445C15.1413 10.4182 14.6353 10.0801 14.0783 9.84936L13.8869 10.3113L13.6956 10.7732C14.1312 10.9537 14.5271 11.2182 14.8605 11.5516L15.2141 11.1981ZM13.8869 10.3113L14.0783 9.84936C13.5213 9.61864 12.9243 9.49989 12.3214 9.49989V9.99989V10.4999C12.793 10.4999 13.2599 10.5928 13.6956 10.7732L13.8869 10.3113Z" fill="#B2EE32" fill-opacity="0.1" mask="url(#path-2-inside-1_237_192)"/>
</g>
<defs>
<clipPath id="clip0_237_192">
<rect width="9.8182" height="9.81818" fill="white" transform="translate(7.41235 9.18171)"/>
</clipPath>
</defs>
</svg>
