<svg width="19" height="18" viewBox="0 0 19 18" fill="none" xmlns="http://www.w3.org/2000/svg">
<path d="M16.3825 3.2625L15.3775 2.8425V9.615L17.2 5.22C17.5075 4.455 17.155 3.5775 16.3825 3.2625ZM1.7575 6.0375L5.4775 15C5.58704 15.2727 5.7739 15.5074 6.01508 15.6753C6.25626 15.8432 6.54125 15.9369 6.835 15.945C7.03 15.945 7.2325 15.9075 7.4275 15.825L12.955 13.5375C13.5175 13.305 13.8625 12.75 13.8775 12.195C13.885 12 13.8475 11.7825 13.78 11.5875L10.03 2.625C9.92435 2.35028 9.73826 2.11383 9.49606 1.94657C9.25387 1.77931 8.96684 1.68902 8.6725 1.6875C8.4775 1.6875 8.2825 1.7325 8.095 1.8L2.575 4.0875C2.20808 4.23776 1.91584 4.52758 1.76254 4.89325C1.60924 5.25892 1.60743 5.6705 1.7575 6.0375ZM13.87 3.1875C13.87 2.78968 13.712 2.40814 13.4307 2.12684C13.1494 1.84554 12.7678 1.6875 12.37 1.6875H11.2825L13.87 7.9425" fill="#C1C1C1"/>
</svg>
