<svg width="16" height="16" viewBox="0 0 16 16" fill="none" xmlns="http://www.w3.org/2000/svg">
<path d="M2.26659 0.833334C1.47109 0.833334 0.833252 1.47117 0.833252 2.26667V9.43333H2.26659V2.26667H9.43325V0.833334H2.26659ZM5.13325 3.7C4.33775 3.7 3.69992 4.33783 3.69992 5.13333V12.3H5.13325V5.13333H12.2999V3.7H5.13325ZM7.99992 6.56667C7.20442 6.56667 6.56659 7.2045 6.56659 8V13.7333C6.56659 14.5288 7.20442 15.1667 7.99992 15.1667H13.7333C14.5288 15.1667 15.1666 14.5288 15.1666 13.7333V8C15.1666 7.2045 14.5288 6.56667 13.7333 6.56667H7.99992Z" fill="#C1C1C1"/>
</svg>
