<svg width="33" height="33" viewBox="0 0 33 33" fill="none" xmlns="http://www.w3.org/2000/svg">
<path d="M20.375 19.1667C16.775 19.1667 9.70831 20.9 9.70831 24.5V27.1667H31.0416V24.5C31.0416 20.9 23.975 19.1667 20.375 19.1667ZM20.375 16.5C21.7895 16.5 23.146 15.9381 24.1462 14.9379C25.1464 13.9377 25.7083 12.5812 25.7083 11.1667C25.7083 9.75222 25.1464 8.39566 24.1462 7.39547C23.146 6.39528 21.7895 5.83337 20.375 5.83337C18.9605 5.83337 17.6039 6.39528 16.6037 7.39547C15.6035 8.39566 15.0416 9.75222 15.0416 11.1667C15.0416 12.5812 15.6035 13.9377 16.6037 14.9379C17.6039 15.9381 18.9605 16.5 20.375 16.5ZM7.04165 20.5L6.24165 19.8334C3.57498 17.3 1.70831 15.7 1.70831 13.7C1.70831 12.1 3.04165 10.7667 4.64165 10.7667C5.57498 10.7667 6.50831 11.1667 7.04165 11.8334C7.57498 11.1667 8.50831 10.7667 9.44165 10.7667C11.0416 10.7667 12.375 11.9667 12.375 13.7C12.375 15.7 10.5083 17.3 7.84165 19.8334L7.04165 20.5Z" fill="#B2EE32"/>
</svg>
