<svg width="50" height="56" viewBox="0 0 50 56" fill="none" xmlns="http://www.w3.org/2000/svg">
<path d="M27.8481 17.8946L28.3012 19.5892L29.9842 20.0455L28.3012 20.5018L27.8481 22.1964L27.3949 20.5018L25.7119 20.0455L27.3949 19.5892L27.8481 17.8946Z" fill="url(#paint0_linear_103_2213)"/>
<path d="M27.8481 27.4543L28.3012 29.1489L29.9842 29.6052L28.3012 30.0615L27.8481 31.7561L27.3949 30.0615L25.7119 29.6052L27.3949 29.1489L27.8481 27.4543Z" fill="url(#paint1_linear_103_2213)"/>
<path d="M22.6403 20.0455L23.6473 23.8114L27.3874 24.8254L23.6473 25.8393L22.6403 29.6052L21.6333 25.8393L17.8932 24.8254L21.6333 23.8114L22.6403 20.0455Z" fill="url(#paint2_linear_103_2213)"/>
<path d="M21.9334 40.2441C10.5868 38.0148 11.0019 24.2678 11.0019 24.2678C11.0019 6.94469 25.116 8.01287 25.116 8.01287C25.116 8.01287 38.9994 7.45556 38.9994 24.2214C38.9994 24.2214 39.2762 38.4793 27.7912 40.337C26.8687 40.4763 26.3152 41.1265 26.3152 42.0089V43.5415C26.3152 44.4704 26.9148 45.0741 27.7912 45.0741H30.5125V48H23.4094V41.9625C23.4094 41.08 22.8098 40.3834 21.9334 40.2441ZM14.1384 24.2678C14.1384 24.2678 13.9078 36.25 23.4094 37.6897C23.9167 37.7826 24.4702 37.8291 25.0699 37.8291C25.0699 37.8291 25.5311 37.8291 26.3152 37.7362C29.1749 37.3182 36.0013 35.1354 36.0013 24.2214C35.9552 14.1897 30.2358 11.6354 26.961 10.9852C25.6695 10.753 24.7931 10.7994 24.7931 10.7994C24.7931 10.7994 24.0551 10.753 22.9943 10.9388C19.9962 11.4961 14.3229 13.9111 14.1384 24.2678Z" fill="url(#paint3_linear_103_2213)"/>
<defs>
<linearGradient id="paint0_linear_103_2213" x1="14" y1="10" x2="36.5" y2="48" gradientUnits="userSpaceOnUse">
<stop stop-color="#B2EE32"/>
<stop offset="1" stop-color="#E7FFB4"/>
</linearGradient>
<linearGradient id="paint1_linear_103_2213" x1="14" y1="10" x2="36.5" y2="48" gradientUnits="userSpaceOnUse">
<stop stop-color="#B2EE32"/>
<stop offset="1" stop-color="#E7FFB4"/>
</linearGradient>
<linearGradient id="paint2_linear_103_2213" x1="14" y1="10" x2="36.5" y2="48" gradientUnits="userSpaceOnUse">
<stop stop-color="#B2EE32"/>
<stop offset="1" stop-color="#E7FFB4"/>
</linearGradient>
<linearGradient id="paint3_linear_103_2213" x1="14" y1="10" x2="36.5" y2="48" gradientUnits="userSpaceOnUse">
<stop stop-color="#B2EE32"/>
<stop offset="1" stop-color="#E7FFB4"/>
</linearGradient>
</defs>
</svg>
