<svg width="33" height="33" viewBox="0 0 33 33" fill="none" xmlns="http://www.w3.org/2000/svg">
<path d="M3.54163 16.5C3.54163 19.6826 4.80591 22.7348 7.05634 24.9853C9.30678 27.2357 12.359 28.5 15.5416 28.5C18.7283 28.5 21.7816 27.2467 24.075 25.0333L22.075 23.0333C21.2355 23.9223 20.2226 24.6295 19.0988 25.1111C17.975 25.5927 16.7643 25.8386 15.5416 25.8333C7.22163 25.8333 3.06163 15.78 8.94163 9.9C14.8216 4.02 24.875 8.19333 24.875 16.5H20.875L26.2083 21.8333H26.3416L31.5416 16.5H27.5416C27.5416 13.3174 26.2773 10.2652 24.0269 8.01472C21.7765 5.76428 18.7242 4.5 15.5416 4.5C12.359 4.5 9.30678 5.76428 7.05634 8.01472C4.80591 10.2652 3.54163 13.3174 3.54163 16.5Z" fill="#B2EE32"/>
</svg>
